<mxfile host="Electron" agent="Mozilla/5.0 (Windows NT 10.0; Win64; x64) AppleWebKit/537.36 (KHTML, like Gecko) draw.io/26.0.4 Chrome/128.0.6613.186 Electron/32.2.5 Safari/537.36" version="26.0.4">
  <diagram name="第 1 页" id="fUV9HRSgn_qkcsIvF5ma">
    <mxGraphModel dx="1450" dy="621" grid="0" gridSize="10" guides="1" tooltips="1" connect="1" arrows="1" fold="1" page="0" pageScale="1" pageWidth="827" pageHeight="1169" math="0" shadow="0">
      <root>
        <mxCell id="0" />
        <mxCell id="1" parent="0" />
        <mxCell id="KBI7AvbJKztdnZxgxQBW-1" value="&lt;font style=&quot;font-size: 16px;&quot;&gt;&lt;b style=&quot;&quot;&gt;t1&lt;/b&gt;&lt;/font&gt;" style="rounded=0;whiteSpace=wrap;html=1;fillColor=#d5e8d4;strokeColor=#82b366;flipH=1;" vertex="1" parent="1">
          <mxGeometry x="-147" y="185" width="120" height="60" as="geometry" />
        </mxCell>
        <mxCell id="KBI7AvbJKztdnZxgxQBW-4" value="&lt;font style=&quot;font-size: 16px;&quot;&gt;&lt;b style=&quot;&quot;&gt;t2&lt;/b&gt;&lt;/font&gt;" style="rounded=0;whiteSpace=wrap;html=1;fillColor=#d5e8d4;strokeColor=#82b366;flipH=1;" vertex="1" parent="1">
          <mxGeometry x="640" y="185" width="120" height="60" as="geometry" />
        </mxCell>
        <mxCell id="KBI7AvbJKztdnZxgxQBW-7" value="&lt;font style=&quot;font-size: 16px;&quot;&gt;&lt;b style=&quot;&quot;&gt;wait response有值&lt;/b&gt;&lt;/font&gt;" style="text;html=1;align=center;verticalAlign=middle;resizable=0;points=[];autosize=1;strokeColor=none;fillColor=none;" vertex="1" parent="1">
          <mxGeometry x="30" y="177" width="160" height="30" as="geometry" />
        </mxCell>
        <mxCell id="KBI7AvbJKztdnZxgxQBW-14" value="" style="rounded=0;whiteSpace=wrap;html=1;fillColor=#f8cecc;strokeColor=#b85450;flipH=1;" vertex="1" parent="1">
          <mxGeometry x="227" y="120" width="160" height="150" as="geometry" />
        </mxCell>
        <mxCell id="KBI7AvbJKztdnZxgxQBW-8" value="&lt;font style=&quot;font-size: 16px;&quot;&gt;&lt;b style=&quot;&quot;&gt;为response赋值并唤醒t1&lt;/b&gt;&lt;/font&gt;" style="text;html=1;align=center;verticalAlign=middle;resizable=0;points=[];autosize=1;strokeColor=none;fillColor=none;" vertex="1" parent="1">
          <mxGeometry x="416" y="177" width="200" height="30" as="geometry" />
        </mxCell>
        <mxCell id="KBI7AvbJKztdnZxgxQBW-9" value="&lt;div style=&quot;color: rgb(47, 45, 45);&quot;&gt;&lt;pre style=&quot;&quot;&gt;&lt;span style=&quot;color: rgb(0, 0, 0);&quot;&gt;&lt;font face=&quot;Helvetica&quot; style=&quot;font-size: 16px;&quot;&gt;&lt;b style=&quot;&quot;&gt;id&lt;/b&gt;&lt;/font&gt;&lt;/span&gt;&lt;/pre&gt;&lt;/div&gt;" style="rounded=0;whiteSpace=wrap;html=1;fillColor=#fff2cc;strokeColor=#d6b656;" vertex="1" parent="1">
          <mxGeometry x="247" y="170" width="120" height="30" as="geometry" />
        </mxCell>
        <mxCell id="KBI7AvbJKztdnZxgxQBW-11" value="&lt;pre style=&quot;color: rgb(47, 45, 45);&quot;&gt;&lt;span style=&quot;color: rgb(0, 0, 0);&quot;&gt;&lt;font face=&quot;Helvetica&quot; style=&quot;font-size: 16px;&quot;&gt;&lt;b style=&quot;&quot;&gt;GuardedObject&lt;/b&gt;&lt;/font&gt;&lt;/span&gt;&lt;/pre&gt;" style="text;html=1;align=center;verticalAlign=middle;resizable=0;points=[];autosize=1;strokeColor=none;fillColor=none;" vertex="1" parent="1">
          <mxGeometry x="240" y="123" width="134" height="55" as="geometry" />
        </mxCell>
        <mxCell id="KBI7AvbJKztdnZxgxQBW-15" value="&lt;div style=&quot;color: rgb(47, 45, 45);&quot;&gt;&lt;p style=&quot;&quot;&gt;&lt;font face=&quot;Helvetica&quot;&gt;&lt;span style=&quot;font-size: 16px; white-space: normal;&quot;&gt;&lt;b&gt;response&lt;/b&gt;&lt;/span&gt;&lt;/font&gt;&lt;/p&gt;&lt;/div&gt;" style="rounded=0;whiteSpace=wrap;html=1;fillColor=#fff2cc;strokeColor=#d6b656;" vertex="1" parent="1">
          <mxGeometry x="247" y="200" width="120" height="30" as="geometry" />
        </mxCell>
        <mxCell id="KBI7AvbJKztdnZxgxQBW-16" style="edgeStyle=orthogonalEdgeStyle;rounded=0;orthogonalLoop=1;jettySize=auto;html=1;entryX=1;entryY=0.5;entryDx=0;entryDy=0;" edge="1" parent="1" source="KBI7AvbJKztdnZxgxQBW-4" target="KBI7AvbJKztdnZxgxQBW-15">
          <mxGeometry relative="1" as="geometry" />
        </mxCell>
        <mxCell id="KBI7AvbJKztdnZxgxQBW-17" style="edgeStyle=orthogonalEdgeStyle;rounded=0;orthogonalLoop=1;jettySize=auto;html=1;" edge="1" parent="1" source="KBI7AvbJKztdnZxgxQBW-1" target="KBI7AvbJKztdnZxgxQBW-15">
          <mxGeometry relative="1" as="geometry" />
        </mxCell>
      </root>
    </mxGraphModel>
  </diagram>
</mxfile>
